<svg width="31" height="32" viewBox="0 0 31 32" fill="none" xmlns="http://www.w3.org/2000/svg">
<path d="M18.2948 3.90276C18.2917 4.10141 18.2183 4.29254 18.0877 4.44223L18.0811 4.75284L16.4033 4.71833C16.4033 4.79704 16.4088 4.87636 16.413 4.95507C16.4427 5.49054 16.5125 6.02303 16.6219 6.54805L18.1186 6.11333L18.5915 7.74083L17.0954 8.17555C17.3155 8.75676 17.5857 9.31773 17.9031 9.8521L19.1909 8.94389L20.1693 10.328L18.8803 11.2392C19.0922 11.4947 19.3164 11.7408 19.553 11.9773C19.7897 12.214 20.0373 12.4374 20.2916 12.6494L21.2428 11.304L22.6269 12.2824L21.6757 13.6236C22.2102 13.9399 22.771 14.2097 23.3517 14.43L23.8052 12.8679L25.4333 13.3408L24.9792 14.9047C25.5971 15.0336 26.2252 15.108 26.8561 15.1269L26.8313 13.6333L27.8854 13.6157C27.4224 11.2073 26.2663 8.98647 24.5589 7.22587C22.8515 5.46526 20.6673 4.24149 18.2742 3.70477C18.289 3.7697 18.2959 3.83618 18.2948 3.90276ZM12.957 27.24L14.6468 27.2696C14.6254 26.66 14.5521 26.0534 14.4277 25.4562L12.9661 25.8801L12.4932 24.2526L13.953 23.8287C13.7328 23.2479 13.4627 22.6871 13.1459 22.1528L11.915 23.0235L10.9365 21.6394L12.1699 20.7669C11.9586 20.5114 11.7345 20.2643 11.4984 20.0282C11.2623 19.7921 11.014 19.5668 10.7603 19.3549L9.91814 20.5465L8.53707 19.5681L9.37867 18.3777C8.84408 18.0605 8.28292 17.7905 7.70152 17.5706L7.31583 18.899L5.68773 18.4261L6.07402 17.0941C5.54872 16.9857 5.01603 16.9169 4.48042 16.8883C4.38416 16.8828 4.28789 16.8786 4.19101 16.8761L4.21523 18.2288L3.14294 18.2481C3.58808 20.7122 4.75806 22.9875 6.50327 24.7831C8.24848 26.5787 10.4896 27.8129 12.94 28.328L12.957 27.24Z" fill="white"/>
<path d="M26.9221 18.8257L26.8888 16.824C26.0877 16.8051 25.2902 16.709 24.5075 16.537L24.0371 18.1676L22.4059 17.6953L22.88 16.0605C22.12 15.7817 21.3888 15.4299 20.6967 15.01L19.7061 16.4117L18.322 15.4333L19.3108 14.034C18.6439 13.4933 18.0351 12.8845 17.4944 12.2176L16.1508 13.1664L15.1724 11.7817L16.5147 10.8329C16.0939 10.141 15.7415 9.4098 15.4624 8.64959L13.9033 9.10248L13.4305 7.47438L14.9883 7.02209C14.9076 6.65033 14.8434 6.27414 14.7958 5.8935H14.7673L14.7201 5.04584L14.7001 4.68256L13.6139 4.66319C13.5776 4.66246 13.5414 4.65922 13.5055 4.6535L13.1211 4.64563L13.1247 4.49608C13.0164 4.41575 12.9287 4.31072 12.8691 4.18972C12.8095 4.06873 12.7797 3.93525 12.782 3.80039C12.7825 3.76655 12.7851 3.73278 12.7899 3.69928C10.3857 4.23629 8.19185 5.4666 6.47986 7.23788C4.76787 9.00917 3.61295 11.2436 3.15808 13.6647L4.13289 13.6477L4.16013 15.1723L4.57367 15.1953L5.42132 15.2419V15.271C5.80156 15.3182 6.17776 15.3824 6.54992 15.4635L6.95437 14.071L8.57945 14.5469L8.17378 15.9394C8.9341 16.2182 9.66535 16.5707 10.3571 16.9917L11.2368 15.7469L12.6222 16.7265L11.746 17.9678C12.4132 18.5083 13.0219 19.1171 13.5625 19.7842L14.8521 18.876L15.8305 20.2601L14.5373 21.1713C14.9569 21.8635 15.3085 22.5946 15.5871 23.3546L17.1172 22.9108L17.59 24.5371L16.0618 24.9809C16.2294 25.7432 16.3251 26.5196 16.3476 27.2998L18.1289 27.3319L18.1113 28.3297C20.4671 27.8352 22.6317 26.6757 24.3486 24.9887C26.0656 23.3017 27.263 21.1578 27.7988 18.8112L26.9221 18.8257Z" fill="#00B25B"/>
</svg>
