<svg width="25" height="24" viewBox="0 0 25 24" fill="none" xmlns="http://www.w3.org/2000/svg">
<g clip-path="url(#clip0_2287_16668)">
<path d="M22.4431 2.0626C22.4263 2.0476 22.4094 2.0326 22.3925 2.01572C22.3906 2.01385 22.3888 2.01385 22.3869 2.0101C21.5188 1.0651 18.4944 1.4776 14.5325 3.99385C14.4331 4.05572 14.3338 4.1251 14.2325 4.19072C14.0169 3.95635 13.7544 3.75385 13.4581 3.58135C13.64 3.45947 13.8238 3.33572 14.0056 3.22135C16.3906 1.70635 18.59 0.851349 20.2869 0.703224C16.3588 -0.815526 10.0475 0.498849 5.52502 5.01947C0.693144 9.8476 -0.486231 16.7195 1.54627 20.5482C1.55189 18.6376 2.50814 15.9732 4.31752 13.0651C4.38127 12.962 4.45439 12.8626 4.51814 12.7595C4.76752 12.9338 5.04314 13.0895 5.33564 13.2226C5.25877 13.3407 5.17627 13.457 5.10127 13.577C2.44814 17.8445 1.94752 21.2232 2.85689 22.2095C6.32377 25.1851 14.1425 24.3076 19.475 18.977C24.965 13.4907 25.7413 5.36447 22.4431 2.0626Z" fill="#F79329"/>
<path d="M14.2138 5.48804C14.06 4.74741 13.4225 4.22991 12.7419 3.95616C12.4925 3.85679 12.1906 3.76304 11.9131 3.80241C11.6881 3.83616 11.4106 3.85116 11.2194 3.99741C11.1312 4.06491 11.0319 4.18679 11.0206 4.29741C11.0056 4.44929 11.1406 4.56179 11.0825 4.73429C11.0338 4.87304 10.8706 4.91054 10.7431 4.91429C10.2369 4.92741 9.61812 4.70241 9.185 5.08304C8.91875 5.31741 8.91313 5.59866 9.03687 5.87804C9.06312 5.98679 9.09313 6.09554 9.065 6.20616C8.99563 6.48554 8.7275 6.43491 8.50062 6.45554C8.4875 6.45741 8.47625 6.45929 8.46313 6.46304C8.36563 6.44616 8.26813 6.43116 8.17063 6.42554C7.625 6.39929 7.09812 6.61116 6.95375 7.18491C6.89 7.43241 6.92563 7.66116 7.02688 7.86741C7.06438 8.11491 7.15438 8.40179 6.8375 8.51429C6.73438 8.54991 6.635 8.55179 6.54125 8.60241C6.23375 8.65491 5.93 8.75991 5.71063 8.93616C5.53625 9.07866 5.44063 9.33929 5.37875 9.55116C5.32625 9.72741 5.36563 9.94866 5.48375 10.0762C5.57563 10.1737 5.7125 10.3312 5.54 10.453C5.42938 10.5337 5.21188 10.5299 5.07875 10.5505C4.82 10.5937 4.55938 10.7887 4.445 11.0362C4.41875 11.0943 4.39813 11.1562 4.39063 11.2199C4.33063 11.653 4.54813 11.9699 4.87813 12.2062C5.23112 12.4543 5.61745 12.6512 6.02563 12.7912C6.245 12.8662 6.47188 12.9093 6.70438 12.9205C7.055 12.9412 7.44125 12.7687 7.54063 12.3974C7.6775 11.8893 7.17313 11.713 7.1 11.2855C7.04563 10.9799 7.90062 11.1974 8.03187 11.2049C8.34125 11.2237 8.65438 11.0868 8.84188 10.8374C9.08563 10.5187 9.06313 10.0049 8.84375 9.67679C8.8175 9.63741 8.78563 9.60741 8.7575 9.57179C8.7575 9.56991 8.76125 9.56804 8.75938 9.56241C8.75375 9.49491 8.68063 9.44991 8.67125 9.38054C8.66188 9.29054 8.71438 9.22304 8.80438 9.21929C8.81563 9.21929 8.83062 9.22304 8.84562 9.22679C9.09312 9.31304 9.35375 9.36929 9.61438 9.36929C10.0569 9.36929 10.4581 9.27366 10.61 8.81804C10.7619 8.36429 10.5875 7.90491 10.28 7.51679C10.2556 7.46804 10.2369 7.41929 10.2575 7.36679C10.2856 7.29741 10.3531 7.29179 10.4281 7.30866C10.4656 7.31804 10.5031 7.33116 10.5406 7.34429C11.1031 7.67241 11.9581 7.94616 12.3781 7.43054C12.6875 7.04616 12.2638 6.64491 12.365 6.22866C12.4062 6.05804 12.6369 6.02991 12.7888 6.05991C12.9106 6.08241 13.0231 6.15741 13.1281 6.21554C13.3794 6.35429 13.8406 6.43304 14.1013 6.23054C14.33 6.05991 14.2625 5.72054 14.2138 5.48804Z" fill="white"/>
</g>
<defs>
<clipPath id="clip0_2287_16668">
<rect width="24" height="24" fill="white" transform="translate(0.5)"/>
</clipPath>
</defs>
</svg>
