<svg width="41" height="40" viewBox="0 0 41 40" fill="none" xmlns="http://www.w3.org/2000/svg">
<path d="M29.7049 25.6445C29.3752 25.6445 29.053 25.5394 28.7789 25.3426C28.5048 25.1457 28.2912 24.8659 28.1651 24.5385C28.0389 24.2111 28.0059 23.8508 28.0702 23.5033C28.1345 23.1557 28.2933 22.8365 28.5264 22.5859C28.7594 22.3354 29.0564 22.1647 29.3797 22.0956C29.703 22.0265 30.0381 22.0619 30.3427 22.1976C30.6472 22.3332 30.9075 22.5628 31.0906 22.8574C31.2738 23.1521 31.3715 23.4985 31.3715 23.8528C31.3715 24.328 31.1959 24.7837 30.8834 25.1197C30.5708 25.4557 30.1469 25.6445 29.7049 25.6445ZM11.2951 25.6445C10.9655 25.6445 10.6433 25.5394 10.3692 25.3426C10.0951 25.1457 9.88149 24.8659 9.75534 24.5385C9.62919 24.2111 9.59619 23.8508 9.6605 23.5033C9.72481 23.1557 9.88354 22.8365 10.1166 22.5859C10.3497 22.3354 10.6467 22.1647 10.97 22.0956C11.2933 22.0265 11.6284 22.0619 11.9329 22.1976C12.2375 22.3332 12.4978 22.5628 12.6809 22.8574C12.8641 23.1521 12.9618 23.4985 12.9618 23.8528C12.9618 24.328 12.7862 24.7837 12.4737 25.1197C12.1611 25.4557 11.7372 25.6445 11.2951 25.6445ZM30.3021 14.8587L33.6313 8.66249C33.6842 8.57763 33.7204 8.48198 33.7376 8.38148C33.7548 8.28097 33.7526 8.17774 33.7312 8.07818C33.7097 7.97862 33.6695 7.88485 33.613 7.80268C33.5565 7.72052 33.4848 7.6517 33.4026 7.60049C33.3203 7.54928 33.2291 7.51678 33.1347 7.50499C33.0403 7.4932 32.9446 7.50237 32.8536 7.53195C32.7626 7.56152 32.6783 7.61086 32.6057 7.67692C32.5332 7.74297 32.474 7.82433 32.4319 7.91596L29.0611 14.192C26.3686 12.8938 23.451 12.2227 20.5 12.2227C17.549 12.2227 14.6314 12.8938 11.9389 14.192L8.56806 7.91596C8.52596 7.82433 8.46682 7.74297 8.39428 7.67692C8.32175 7.61086 8.23737 7.56152 8.14638 7.53195C8.05539 7.50237 7.95971 7.4932 7.86528 7.50499C7.77086 7.51678 7.67969 7.54928 7.59742 7.60049C7.51516 7.6517 7.44355 7.72052 7.38703 7.80268C7.33051 7.88485 7.29029 7.97862 7.26885 8.07818C7.24741 8.17774 7.24522 8.28097 7.2624 8.38148C7.27959 8.48198 7.31578 8.57763 7.36875 8.66249L10.6979 14.8587C4.98125 18.2009 1.07222 24.4217 0.5 31.7713H40.5C39.9278 24.4217 36.0181 18.2009 30.3021 14.8587Z" fill="white"/>
</svg>
