<svg width="41" height="40" viewBox="0 0 41 40" fill="none" xmlns="http://www.w3.org/2000/svg">
<path d="M31.0969 21.1378C31.0801 17.8604 32.4699 15.3867 35.2829 13.565C33.7089 11.1627 31.3313 9.84108 28.1918 9.5821C25.2197 9.33206 21.9713 11.4307 20.7825 11.4307C19.5267 11.4307 16.6467 9.6714 14.3862 9.6714C9.71463 9.75177 4.75 13.6453 4.75 21.5664C4.75 23.9061 5.15186 26.3232 5.95558 28.8177C7.0272 32.0951 10.8951 40.1323 14.9304 39.9983C17.0402 39.9448 18.5304 38.3998 21.2764 38.3998C23.9388 38.3998 25.3201 39.9983 27.6727 39.9983C31.7415 39.9358 35.241 32.6309 36.2624 29.3446C30.8038 26.6031 31.0969 21.3074 31.0969 21.1378ZM26.3583 6.47439C28.6439 3.58101 28.4346 0.946601 28.3676 0C26.3499 0.125023 24.0141 1.46455 22.6829 3.11664C21.2178 4.88482 20.3555 7.07272 20.5397 9.53745C22.7248 9.71605 24.7174 8.51941 26.3583 6.47439Z" fill="white"/>
</svg>
